<svg width="40" height="40" viewBox="0 0 40 40" fill="none" xmlns="http://www.w3.org/2000/svg">
<symbol id="instagram">
<path d="M13 3.33325H27C32.3386 3.33325 36.6666 7.66117 36.6666 12.9999V26.9999C36.6666 32.3387 32.3386 36.6666 27 36.6666H13C7.66123 36.6666 3.33331 32.3387 3.33331 26.9999V12.9999C3.33331 7.66117 7.66123 3.33325 13 3.33325ZM12.6666 6.66655C9.35293 6.66655 6.66665 9.35285 6.66665 12.6666V27.3332C6.66665 30.6469 9.35293 33.3332 12.6666 33.3332H27.3333C30.647 33.3332 33.3333 30.6469 33.3333 27.3332V12.6666C33.3333 9.35285 30.647 6.66655 27.3333 6.66655H12.6666ZM28.75 9.16655C29.9006 9.16655 30.8333 10.0993 30.8333 11.2499C30.8333 12.4005 29.9006 13.3332 28.75 13.3332C27.5993 13.3332 26.6666 12.4005 26.6666 11.2499C26.6666 10.0993 27.5993 9.16655 28.75 9.16655ZM20 11.6666C24.6023 11.6666 28.3333 15.3975 28.3333 19.9999C28.3333 24.6022 24.6023 28.3332 20 28.3332C15.3976 28.3332 11.6666 24.6022 11.6666 19.9999C11.6666 15.3975 15.3976 11.6666 20 11.6666ZM20 14.9999C17.2385 14.9999 15 17.2386 15 19.9999C15 22.7614 17.2385 24.9999 20 24.9999C22.7615 24.9999 25 22.7614 25 19.9999C25 17.2386 22.7615 14.9999 20 14.9999Z" fill="white"/>
</symbol>
</svg>
