<svg width="40" height="40" viewBox="0 0 40 40" fill="none" xmlns="http://www.w3.org/2000/svg">
<symbol id="twitter">
<path d="M37.432 10.0207C36.1493 10.5896 34.7707 10.9741 33.324 11.147C34.8005 10.2618 35.9348 8.86005 36.4688 7.18971C35.0867 8.00948 33.556 8.60471 31.9267 8.92541C30.622 7.53528 28.7632 6.66675 26.7058 6.66675C22.7557 6.66675 19.5528 9.8692 19.5528 13.8193C19.5528 14.3799 19.6162 14.9258 19.7382 15.4494C13.7935 15.1511 8.52293 12.3035 4.99516 7.97593C4.37943 9.03233 4.0267 10.261 4.0267 11.5719C4.0267 14.0535 5.28941 16.2428 7.20873 17.5256C6.03633 17.4882 4.93328 17.1666 3.969 16.6308C3.96831 16.6607 3.96831 16.6906 3.96831 16.7207C3.96831 20.1864 6.4339 23.0772 9.706 23.7344C9.10583 23.8979 8.47391 23.9854 7.82158 23.9854C7.36068 23.9854 6.9126 23.9404 6.47578 23.8571C7.38603 26.6986 10.0276 28.7667 13.1576 28.8242C10.7096 30.7429 7.62546 31.8864 4.27423 31.8864C3.69688 31.8864 3.12753 31.8524 2.56796 31.7862C5.7334 33.8157 9.4932 35.0001 13.5325 35.0001C26.689 35.0001 33.8837 24.1009 33.8837 14.6487C33.8837 14.3386 33.8767 14.0302 33.8628 13.7233C35.2605 12.7148 36.4732 11.4551 37.432 10.0207Z" fill="white"/>
</symbol>
</svg>
